<svg width="516" height="516" viewBox="0 0 516 516" fill="none" xmlns="http://www.w3.org/2000/svg">
<rect width="516" height="516" rx="258" fill="white"/>
<circle cx="258" cy="228" r="115" fill="url(#paint0_radial_2_15)"/>
<circle cx="257.5" cy="227.5" r="82.5" fill="url(#paint1_radial_2_15)"/>
<path d="M253.875 163.234C240.018 164.989 227.076 171.095 216.91 180.673C206.744 190.251 199.879 202.808 197.302 216.535" stroke="white" stroke-opacity="0.4" stroke-width="20" stroke-linecap="round" stroke-linejoin="round"/>
<path d="M269.652 288.204C280.42 287.71 290.75 283.745 299.157 276.88C307.564 270.015 313.613 260.603 316.434 250" stroke="white" stroke-opacity="0.1" stroke-width="20" stroke-linecap="round" stroke-linejoin="round"/>
<circle cx="237" cy="181" r="15" fill="white"/>
<mask id="path-7-inside-1_2_15" fill="white">
<path fill-rule="evenodd" clip-rule="evenodd" d="M39 267C82.6145 193.47 164.133 144 257.5 144C350.867 144 432.385 193.47 476 267C432.385 340.53 350.867 390 257.5 390C164.133 390 82.6145 340.53 39 267Z"/>
</mask>
<path d="M39 267L30.3992 261.898L27.3732 267L30.3992 272.102L39 267ZM476 267L484.601 272.102L487.627 267L484.601 261.898L476 267ZM47.6008 272.102C89.4457 201.555 167.725 154 257.5 154V134C160.541 134 75.7833 185.385 30.3992 261.898L47.6008 272.102ZM257.5 154C347.275 154 425.554 201.555 467.399 272.102L484.601 261.898C439.217 185.385 354.459 134 257.5 134V154ZM467.399 261.898C425.554 332.445 347.275 380 257.5 380V400C354.459 400 439.217 348.615 484.601 272.102L467.399 261.898ZM257.5 380C167.725 380 89.4457 332.445 47.6008 261.898L30.3992 272.102C75.7833 348.615 160.541 400 257.5 400V380Z" fill="black" mask="url(#path-7-inside-1_2_15)"/>
<mask id="path-9-inside-2_2_15" fill="white">
<path fill-rule="evenodd" clip-rule="evenodd" d="M39 257C82.6145 183.47 164.133 134 257.5 134C350.867 134 432.385 183.47 476 257C432.385 330.53 350.867 380 257.5 380C164.133 380 82.6145 330.53 39 257Z"/>
</mask>
<path d="M39 257L30.3992 251.898L27.3732 257L30.3992 262.102L39 257ZM476 257L484.601 262.102L487.627 257L484.601 251.898L476 257ZM47.6008 262.102C89.4457 191.555 167.725 144 257.5 144V124C160.541 124 75.7833 175.385 30.3992 251.898L47.6008 262.102ZM257.5 144C347.275 144 425.554 191.555 467.399 262.102L484.601 251.898C439.217 175.385 354.459 124 257.5 124V144ZM467.399 251.898C425.554 322.445 347.275 370 257.5 370V390C354.459 390 439.217 338.615 484.601 262.102L467.399 251.898ZM257.5 370C167.725 370 89.4457 322.445 47.6008 251.898L30.3992 262.102C75.7833 338.615 160.541 390 257.5 390V370Z" fill="white" mask="url(#path-9-inside-2_2_15)"/>
<path d="M64.2 301H59.55C58.45 301 58.1 300.4 58.5 299.2L88.35 206.35C88.65 205.15 89.35 204.55 90.45 204.55H97.5C98.5 204.55 99.2 205.15 99.6 206.35L129.45 299.2C129.75 300.4 129.4 301 128.4 301H123.6C122.6 301 121.95 300.4 121.65 299.2L113.55 275.2H74.25L66.15 299.2C65.75 300.4 65.1 301 64.2 301ZM93.6 212.8L76.35 268.45H111.6L94.2 212.8H93.6ZM152.58 301H148.23C147.23 301 146.73 300.4 146.73 299.2V206.35C146.73 205.15 147.23 204.55 148.23 204.55H182.43C188.93 204.55 194.08 206.45 197.88 210.25C201.68 214.05 203.58 219.25 203.58 225.85V240.1C203.58 245.7 202.13 250.3 199.23 253.9C196.43 257.5 192.58 259.8 187.68 260.8V261.4L205.53 299.2C206.13 300.4 205.78 301 204.48 301H199.83C198.53 301 197.63 300.4 197.13 299.2L179.43 261.4H155.73C154.73 261.4 154.23 261.85 154.23 262.75V299.2C154.23 300.4 153.68 301 152.58 301ZM155.73 254.95H181.68C186.28 254.95 189.83 253.7 192.33 251.2C194.83 248.6 196.08 244.95 196.08 240.25V226.15C196.08 221.45 194.83 217.8 192.33 215.2C189.83 212.6 186.28 211.3 181.68 211.3H155.73C154.73 211.3 154.23 211.75 154.23 212.65V253.6C154.23 254.5 154.73 254.95 155.73 254.95ZM232.707 301H228.357C227.357 301 226.857 300.4 226.857 299.2V206.35C226.857 205.15 227.357 204.55 228.357 204.55H232.707C233.807 204.55 234.357 205.15 234.357 206.35V261.7H234.957C235.557 260.1 236.457 258.45 237.657 256.75L275.757 206.35C276.657 205.15 277.707 204.55 278.907 204.55H284.157C285.457 204.55 285.657 205.15 284.757 206.35L254.607 246.7L289.407 299.2C290.207 300.4 289.907 301 288.507 301H284.307C282.807 301 281.707 300.4 281.007 299.2L249.807 252.4L234.357 271V299.2C234.357 300.4 233.807 301 232.707 301ZM303.848 301H299.198C298.098 301 297.748 300.4 298.148 299.2L327.998 206.35C328.298 205.15 328.998 204.55 330.098 204.55H337.148C338.148 204.55 338.848 205.15 339.248 206.35L369.098 299.2C369.398 300.4 369.048 301 368.048 301H363.248C362.248 301 361.598 300.4 361.298 299.2L353.198 275.2H313.898L305.798 299.2C305.398 300.4 304.748 301 303.848 301ZM333.248 212.8L315.998 268.45H351.248L333.848 212.8H333.248ZM392.229 301H387.879C386.879 301 386.379 300.4 386.379 299.2V206.35C386.379 205.15 386.879 204.55 387.879 204.55H391.929C392.829 204.55 393.429 204.85 393.729 205.45L439.779 284.65H440.379V206.35C440.379 205.15 440.929 204.55 442.029 204.55H446.229C447.329 204.55 447.879 205.15 447.879 206.35V299.2C447.879 300.4 447.329 301 446.229 301H442.779C441.879 301 441.079 300.45 440.379 299.35L394.479 220.75H393.879V299.2C393.879 300.4 393.329 301 392.229 301Z" fill="#F9A825"/>
<path d="M78.6061 261.026C83.1701 245.829 104.69 245.829 109.254 261.026L115.672 282.398C118.755 292.665 111.068 303 100.348 303H87.5117C76.7919 303 69.1045 292.665 72.1878 282.398L78.6061 261.026Z" fill="white"/>
<rect x="436" y="269" width="4.37" height="32" fill="white"/>
<rect x="61" y="294" width="65" height="7" fill="#F9A825"/>
<path d="M440.38 297.7H447.88V299.53C447.88 300.347 447.217 301.01 446.4 301.01H441.86C441.043 301.01 440.38 300.347 440.38 299.53V297.7Z" fill="#F9A825"/>
<path d="M379.798 158.377C380.993 149.812 376.843 140.626 367.689 131.579C358.535 122.531 344.64 113.881 327.154 106.344C309.667 98.8074 289.09 92.5994 267.123 88.2335C245.156 83.8676 222.43 81.4691 200.823 81.2361C179.216 81.0032 159.348 82.9425 142.861 86.8939C126.374 90.8453 113.741 96.6952 106.006 103.96C98.271 111.225 95.6564 119.697 98.3781 128.675C101.1 137.654 109.08 146.881 121.658 155.594L238.666 138.677L379.798 158.377Z" fill="white"/>
<defs>
<radialGradient id="paint0_radial_2_15" cx="0" cy="0" r="1" gradientUnits="userSpaceOnUse" gradientTransform="translate(258 228) rotate(90) scale(115)">
<stop offset="0.494792" stop-color="#004BA0" stop-opacity="0.86"/>
<stop offset="0.852083" stop-color="#1976D2" stop-opacity="0.9"/>
<stop offset="1" stop-color="#63A4FF" stop-opacity="0.96"/>
</radialGradient>
<radialGradient id="paint1_radial_2_15" cx="0" cy="0" r="1" gradientUnits="userSpaceOnUse" gradientTransform="translate(315.556 247.667) rotate(-147.747) scale(270.255)">
<stop offset="0.140625"/>
<stop offset="1" stop-opacity="0"/>
</radialGradient>
</defs>
</svg>
