<svg width="516" height="516" viewBox="0 0 516 516" fill="none" xmlns="http://www.w3.org/2000/svg">
<rect width="516" height="516" rx="258" fill="white"/>
<circle cx="258" cy="228" r="115" fill="url(#paint0_radial_53_2)"/>
<circle cx="257.5" cy="227.5" r="82.5" fill="url(#paint1_radial_53_2)"/>
<path d="M253.875 163.234C240.018 164.989 227.076 171.095 216.91 180.673C206.744 190.251 199.879 202.808 197.302 216.535" stroke="white" stroke-opacity="0.4" stroke-width="20" stroke-linecap="round" stroke-linejoin="round"/>
<path d="M269.652 288.204C280.42 287.71 290.75 283.745 299.157 276.88C307.564 270.015 313.613 260.603 316.434 250" stroke="white" stroke-opacity="0.1" stroke-width="20" stroke-linecap="round" stroke-linejoin="round"/>
<circle cx="237" cy="181" r="15" fill="white"/>
<mask id="path-7-inside-1_53_2" fill="white">
<path fill-rule="evenodd" clip-rule="evenodd" d="M39 267C82.6145 193.47 164.133 144 257.5 144C350.867 144 432.385 193.47 476 267C432.385 340.53 350.867 390 257.5 390C164.133 390 82.6145 340.53 39 267Z"/>
</mask>
<path d="M39 267L30.3992 261.898L27.3732 267L30.3992 272.102L39 267ZM476 267L484.601 272.102L487.627 267L484.601 261.898L476 267ZM47.6008 272.102C89.4457 201.555 167.725 154 257.5 154V134C160.541 134 75.7833 185.385 30.3992 261.898L47.6008 272.102ZM257.5 154C347.275 154 425.554 201.555 467.399 272.102L484.601 261.898C439.217 185.385 354.459 134 257.5 134V154ZM467.399 261.898C425.554 332.445 347.275 380 257.5 380V400C354.459 400 439.217 348.615 484.601 272.102L467.399 261.898ZM257.5 380C167.725 380 89.4457 332.445 47.6008 261.898L30.3992 272.102C75.7833 348.615 160.541 400 257.5 400V380Z" fill="black" mask="url(#path-7-inside-1_53_2)"/>
<mask id="path-9-inside-2_53_2" fill="white">
<path fill-rule="evenodd" clip-rule="evenodd" d="M39 257C82.6145 183.47 164.133 134 257.5 134C350.867 134 432.385 183.47 476 257C432.385 330.53 350.867 380 257.5 380C164.133 380 82.6145 330.53 39 257Z"/>
</mask>
<path d="M39 257L30.3992 251.898L27.3732 257L30.3992 262.102L39 257ZM476 257L484.601 262.102L487.627 257L484.601 251.898L476 257ZM47.6008 262.102C89.4457 191.555 167.725 144 257.5 144V124C160.541 124 75.7833 175.385 30.3992 251.898L47.6008 262.102ZM257.5 144C347.275 144 425.554 191.555 467.399 262.102L484.601 251.898C439.217 175.385 354.459 124 257.5 124V144ZM467.399 251.898C425.554 322.445 347.275 370 257.5 370V390C354.459 390 439.217 338.615 484.601 262.102L467.399 251.898ZM257.5 370C167.725 370 89.4457 322.445 47.6008 251.898L30.3992 262.102C75.7833 338.615 160.541 390 257.5 390V370Z" fill="white" mask="url(#path-9-inside-2_53_2)"/>
<path d="M379.798 158.377C380.993 149.812 376.843 140.626 367.689 131.579C358.535 122.531 344.64 113.881 327.154 106.344C309.667 98.8074 289.09 92.5994 267.123 88.2335C245.156 83.8676 222.43 81.4691 200.823 81.2361C179.216 81.0032 159.348 82.9425 142.861 86.8939C126.374 90.8453 113.741 96.6952 106.006 103.96C98.271 111.225 95.6564 119.697 98.3781 128.675C101.1 137.654 109.08 146.881 121.658 155.594L238.666 138.677L379.798 158.377Z" fill="white"/>
<defs>
<radialGradient id="paint0_radial_53_2" cx="0" cy="0" r="1" gradientUnits="userSpaceOnUse" gradientTransform="translate(258 228) rotate(90) scale(115)">
<stop offset="0.494792" stop-color="#004BA0" stop-opacity="0.86"/>
<stop offset="0.852083" stop-color="#1976D2" stop-opacity="0.9"/>
<stop offset="1" stop-color="#63A4FF" stop-opacity="0.96"/>
</radialGradient>
<radialGradient id="paint1_radial_53_2" cx="0" cy="0" r="1" gradientUnits="userSpaceOnUse" gradientTransform="translate(315.556 247.667) rotate(-147.747) scale(270.255)">
<stop offset="0.140625"/>
<stop offset="1" stop-opacity="0"/>
</radialGradient>
</defs>
</svg>
